<?xml version="1.0" encoding="utf-8"?>
<!-- Generator: Adobe Illustrator 24.0.3, SVG Export Plug-In . SVG Version: 6.00 Build 0)  -->
<svg version="1.1" id="Layer_1" xmlns="http://www.w3.org/2000/svg" xmlns:xlink="http://www.w3.org/1999/xlink" x="0px" y="0px"
	 viewBox="0 0 2500 464" style="enable-background:new 0 0 2500 464;" xml:space="preserve">
<style type="text/css">
	.st0{fill:#FF5E57;stroke:#FF5E57;stroke-width:2;stroke-miterlimit:10;}
	.st1{fill:#1E272E;}
</style>
<g>
	<g>
		<path class="st0" d="M155.6,148.9c17.3,0,32.1,2.5,44.4,7.6c12.3,5.1,22.6,12.2,31,21.4c8.4,9.2,14.7,19.8,19.1,31.6l-43.8,17.3
			c-3.8-13.3-9.8-23.5-18-30.5c-8.2-7.1-19-10.6-32.3-10.6c-13,0-24.1,3-33.4,8.9c-9.2,5.9-16.2,14.5-21,25.8
			c-4.8,11.3-7.1,25.1-7.1,41.6c0,16.2,2.5,29.9,7.4,41.2c4.9,11.3,12,19.8,21.2,25.6c9.2,5.8,20.2,8.7,32.9,8.7
			c9.8,0,18.3-1.7,25.6-5c7.2-3.3,13.2-8.1,18-14.3c4.8-6.2,8-13.8,9.7-22.8l42,14.3c-4,13-10.3,24.3-18.8,34
			c-8.5,9.7-19.1,17.2-31.8,22.5c-12.7,5.3-27.3,8-43.8,8c-21.4,0-40.3-4.5-56.8-13.4c-16.5-8.9-29.3-21.9-38.4-38.8
			c-9.1-16.9-13.7-37-13.7-60.4c0-23.4,4.5-43.5,13.6-60.4c9.1-16.9,21.8-29.8,38.1-38.8C116.2,153.4,134.8,148.9,155.6,148.9z"/>
		<path class="st0" d="M443.7,230.7c0-14.4-4-25.6-11.9-33.6c-8-7.9-18.9-11.9-32.7-11.9c-13,0-24.1,3-33.4,9.1
			c-9.2,6.1-16,15.9-20.4,29.5l-39-16.5c5.5-17.6,16.2-31.8,32.3-42.5c16-10.7,36.7-16,62.2-16c17.3,0,32.6,2.8,45.9,8.4
			c13.3,5.6,23.8,14.1,31.4,25.3c7.7,11.3,11.5,25.7,11.5,43.3l0,96.6c0,10.7,5.3,16,16,16c5.2,0,10.2-0.7,15.2-2.2l-2.6,32.1
			c-6.6,3.2-15,4.8-25.1,4.8c-9.2,0-17.5-1.7-24.9-5c-7.4-3.3-13.1-8.4-17.3-15.2c-4.2-6.8-6.3-15.2-6.3-25.3v-3l9.5-0.4
			c-2.6,11.3-7.9,20.6-16,28c-8.1,7.4-17.5,12.9-28.2,16.5c-10.7,3.6-21.5,5.4-32.5,5.4c-13.6,0-25.8-2.2-36.6-6.5
			c-10.8-4.3-19.4-10.9-25.6-19.7c-6.2-8.8-9.3-19.7-9.3-32.7c0-16.2,5.3-29.5,15.8-39.9c10.5-10.4,25.5-17.5,44.8-21.2l84.1-16.5
			l-0.4,32.5l-61.1,12.6c-12.1,2.3-21.2,5.6-27.3,10c-6.1,4.3-9.1,10.7-9.1,19.1c0,8.1,3.1,14.5,9.3,19.3c6.2,4.8,14.5,7.1,24.9,7.1
			c7.2,0,14.2-0.9,21-2.6c6.8-1.7,12.9-4.6,18.4-8.5c5.5-3.9,9.7-9,12.8-15.2c3-6.2,4.5-13.7,4.5-22.3L443.7,230.7z"/>
		<path class="st0" d="M623.5,55.6l0.1,253.5c0,10.7,1.9,18.1,5.6,22.1c3.8,4,10,6.1,18.6,6.1c5.2,0,9.6-0.4,13.2-1.1
			c3.6-0.7,8.2-2.1,13.6-4.1l-5.2,34.7c-4.9,2.3-10.5,4.1-16.9,5.4c-6.4,1.3-12.7,2-19.1,2c-19.4,0-33.6-5-42.7-14.9
			c-9.1-10-13.7-25.3-13.7-46.1l-0.1-257.4L623.5,55.6z"/>
		<path class="st0" d="M750,116.7c-10.1,0-17.8-2.5-23.2-7.6c-5.4-5-8-12.2-8-21.4c0-9.2,2.7-16.3,8-21.2c5.3-4.9,13.1-7.4,23.2-7.4
			c9.8,0,17.4,2.5,22.7,7.4c5.3,4.9,8,12,8,21.2c0,9.2-2.7,16.4-8,21.5C767.4,114.1,759.9,116.7,750,116.7z M773,153l0.1,216.6
			l-46.4,0l-0.1-216.6L773,153z"/>
		<path class="st0" d="M951.9,148.7c17.3,0,32.1,2.5,44.4,7.6c12.3,5.1,22.6,12.2,31,21.4c8.4,9.2,14.7,19.8,19.1,31.6l-43.8,17.3
			c-3.8-13.3-9.8-23.5-18-30.5c-8.2-7.1-19-10.6-32.3-10.6c-13,0-24.1,3-33.4,8.9c-9.2,5.9-16.2,14.5-21,25.8
			c-4.8,11.3-7.1,25.1-7.1,41.6c0,16.2,2.5,29.9,7.4,41.2c4.9,11.3,12,19.8,21.2,25.6c9.2,5.8,20.2,8.7,32.9,8.7
			c9.8,0,18.3-1.7,25.6-5c7.2-3.3,13.2-8.1,18-14.3c4.8-6.2,8-13.8,9.7-22.8l42,14.3c-4,13-10.3,24.3-18.8,34
			c-8.5,9.7-19.1,17.2-31.8,22.5c-12.7,5.3-27.3,8-43.8,8c-21.4,0-40.3-4.5-56.8-13.4c-16.5-8.9-29.3-21.9-38.4-38.8
			c-9.1-16.9-13.7-37-13.7-60.4c0-23.4,4.5-43.5,13.6-60.4c9.1-16.9,21.8-29.8,38.1-38.8C912.6,153.2,931.1,148.7,951.9,148.7z"/>
		<path class="st0" d="M1208.9,148.6c21.1,0,39.7,4.5,55.9,13.4c16.2,9,28.8,21.9,37.9,38.8c9.1,16.9,13.7,37,13.7,60.4
			c0,23.4-4.5,43.5-13.6,60.4c-9.1,16.9-21.7,29.8-37.9,38.8c-16.2,9-34.8,13.4-55.9,13.4c-21.1,0-39.7-4.5-55.9-13.4
			c-16.2-8.9-28.9-21.9-38.1-38.8c-9.3-16.9-13.9-37-13.9-60.4c0-23.4,4.6-43.5,13.8-60.4c9.2-16.9,21.9-29.8,38.1-38.8
			C1169.2,153.1,1187.8,148.6,1208.9,148.6z M1208.9,185c-13,0-24,3-33.1,8.9c-9.1,5.9-16.1,14.5-21,25.8
			c-4.9,11.3-7.4,25.1-7.4,41.6c0,16.2,2.5,30,7.4,41.4c4.9,11.4,11.9,20.1,21,26c9.1,5.9,20.2,8.9,33.1,8.9c13,0,24-3,32.9-8.9
			c8.9-5.9,15.9-14.6,20.8-26c4.9-11.4,7.4-25.2,7.4-41.4c0-16.5-2.5-30.3-7.4-41.6c-4.9-11.3-11.9-19.9-20.8-25.8
			C1232.9,187.9,1221.9,185,1208.9,185z"/>
		<path class="st1" d="M1385.7,369.5l0-156.8c0-10.1-0.2-20.3-0.7-30.5c-0.4-10.2-1.4-20.4-2.8-30.5l33.4,0l3.9,45.1l-4.3,3.5
			c6.1-17.6,16.2-31,30.3-40.1c14.1-9.1,30.5-13.7,49-13.7c52.3,0,78.4,28.7,78.4,86.2l0,136.9l-35.1,0l0-135.2
			c0-20.2-4.1-35-12.1-44.4c-8.1-9.4-20.8-14.1-38.1-14.1c-20.2,0-36.4,6.2-48.5,18.6c-12.1,12.4-18.2,29.2-18.2,50.3l0,124.8
			L1385.7,369.5z"/>
		<path class="st1" d="M1742.3,372.4c-20.8,0-38.9-4.6-54.4-13.8c-15.5-9.2-27.5-22.3-36-39.2c-8.5-16.9-12.8-36.9-12.8-60
			c0-22.8,4.2-42.7,12.8-59.8c8.5-17,20.5-30.2,36-39.4c15.4-9.2,33.6-13.9,54.4-13.9c20.8,0,38.9,4.6,54.4,13.8
			c15.4,9.2,27.4,22.4,36,39.4c8.5,17,12.8,37,12.8,59.8c0,23.1-4.3,43.1-12.8,60c-8.5,16.9-20.5,30-35.9,39.2
			C1781.2,367.8,1763.1,372.4,1742.3,372.4z M1742.3,343.4c21.4,0,37.9-7.2,49.6-21.5c11.7-14.3,17.5-35.2,17.5-62.6
			c0-26.9-5.9-47.5-17.8-62c-11.8-14.4-28.3-21.7-49.4-21.7c-21.1,0-37.6,7.2-49.6,21.7c-12,14.5-18,35.1-18,62
			c0,27.4,5.9,48.3,17.6,62.6C1703.9,336.3,1720.6,343.4,1742.3,343.4z"/>
		<path class="st1" d="M1913,369.3l0-156.8c0-10.1-0.2-20.3-0.7-30.5c-0.4-10.2-1.4-20.4-2.8-30.5l33.4,0l4.8,53.7l-4.8-1.3
			c4-19.1,12.8-33.4,26.2-43.1c13.4-9.7,28.5-14.5,45.3-14.5c3.8,0,7.3,0.2,10.6,0.6c3.3,0.4,6.4,1.1,9.3,1.9l-0.9,32.1
			c-6.7-2.3-14.3-3.5-23-3.5c-15,0-27.1,3.3-36.2,10c-9.1,6.6-15.7,15.1-19.9,25.4c-4.2,10.3-6.3,21-6.3,32.3l0,124.4L1913,369.3z"
			/>
		<path class="st1" d="M2069.4,179.1l0-27.7l139.9,0l0,27.7L2069.4,179.1z M2208.5,338.1l0,29.9c-4.9,1.4-9.7,2.5-14.5,3.3
			c-4.8,0.7-10,1.1-15.8,1.1c-20.2,0-36.3-5.8-48.3-17.3c-12-11.5-18-28.9-18-52l-0.1-207.5l35.1-12.6l0.1,215.3
			c0,11.6,1.7,20.5,5,26.9c3.3,6.4,7.9,10.8,13.7,13.2c5.8,2.5,12.3,3.7,19.5,3.7c4.3,0,8.2-0.3,11.7-0.9
			C2200.3,340.5,2204.2,339.5,2208.5,338.1z"/>
		<path class="st1" d="M2264.8,369.2l-0.1-318.9l35.1,0l0,145.1l-5.6,4.3c6.1-17.6,16.2-31,30.3-40.1c14.1-9.1,30.5-13.7,49-13.7
			c52.3,0,78.4,28.7,78.4,86.2l0,136.9l-35.1,0l0-135.2c0-20.2-4.1-35-12.1-44.4c-8.1-9.4-20.8-14.1-38.1-14.1
			c-20.2,0-36.4,6.2-48.5,18.6c-12.1,12.4-18.2,29.2-18.2,50.3l0,124.8L2264.8,369.2z"/>
	</g>
</g>
</svg>
