<?xml version="1.0" encoding="utf-8"?>
<!-- Generator: Adobe Illustrator 24.0.3, SVG Export Plug-In . SVG Version: 6.00 Build 0)  -->
<svg version="1.1" id="Layer_1" xmlns="http://www.w3.org/2000/svg" xmlns:xlink="http://www.w3.org/1999/xlink" x="0px" y="0px"
	 viewBox="0 0 2000 417" style="enable-background:new 0 0 2000 417;" xml:space="preserve">
<style type="text/css">
	.st0{fill:#FFFFFF;}
</style>
<g>
	<g>
		<g>
			<path class="st0" d="M119,192.4c-7.6,0-14.1,1.7-19.2,5.2c-5.2,3.5-9.4,8-12.6,13.5c-3.3,5.5-5.6,11.6-6.9,18.2
				c-1.3,6.6-2,13.2-2,19.7c0,6.3,0.7,12.7,2,19.2c1.3,6.5,3.5,12.4,6.6,17.7c3,5.3,7.1,9.6,12.3,13c5.2,3.4,11.5,5.1,18.9,5.1
				c11.5,0,20.3-3.2,26.5-9.6c6.2-6.4,10.1-15,11.6-25.8h46.2c-3.2,23.2-12.1,40.8-27,52.9c-14.8,12.1-33.8,18.2-57,18.2
				c-13,0-25-2.2-35.9-6.6c-10.9-4.4-20.2-10.5-27.8-18.4c-7.6-7.9-13.6-17.3-17.9-28.2c-4.3-10.9-6.4-22.9-6.4-35.9
				c0-13.5,2-26,5.9-37.6c3.9-11.6,9.7-21.6,17.4-30c7.6-8.4,17-15,28-19.7c11-4.7,23.6-7.1,37.8-7.1c10.3,0,20.3,1.3,29.8,4
				c9.6,2.7,18.1,6.8,25.6,12.3c7.5,5.5,13.7,12.4,18.4,20.6c4.7,8.2,7.4,17.9,8.1,29.2h-46.9C151.2,202.4,139.4,192.4,119,192.4z"
				/>
			<path class="st0" d="M237.4,214.7c0.7-11.2,3.5-20.6,8.4-28c4.9-7.4,11.2-13.4,18.9-17.9c7.6-4.5,16.2-7.7,25.8-9.6
				c9.6-1.9,19.2-2.9,28.8-2.9c8.8,0,17.6,0.6,26.6,1.9c9,1.2,17.2,3.7,24.6,7.3c7.4,3.6,13.5,8.6,18.2,15
				c4.7,6.4,7.1,14.9,7.1,25.5v90.7c0,7.9,0.4,15.4,1.3,22.6c0.9,7.2,2.5,12.6,4.7,16.2h-48.6c-0.9-2.7-1.6-5.4-2.2-8.3
				c-0.6-2.8-1-5.7-1.2-8.6c-7.6,7.9-16.6,13.4-27,16.5c-10.3,3.1-20.9,4.7-31.7,4.7c-8.3,0-16.1-1-23.3-3c-7.2-2-13.5-5.2-18.9-9.4
				c-5.4-4.3-9.6-9.7-12.6-16.2c-3-6.5-4.6-14.3-4.6-23.3c0-9.9,1.7-18,5.2-24.4c3.5-6.4,8-11.5,13.5-15.3
				c5.5-3.8,11.8-6.7,18.9-8.6c7.1-1.9,14.2-3.4,21.4-4.6c7.2-1.1,14.3-2,21.2-2.7c7-0.7,13.2-1.7,18.5-3c5.4-1.3,9.7-3.3,12.8-5.9
				c3.1-2.6,4.6-6.3,4.4-11.3c0-5.2-0.8-9.3-2.5-12.3c-1.7-3-3.9-5.4-6.7-7.1c-2.8-1.7-6.1-2.8-9.8-3.4c-3.7-0.6-7.7-0.8-12-0.8
				c-9.4,0-16.9,2-22.3,6.1c-5.4,4-8.5,10.8-9.4,20.2H237.4z M348,250.1c-2,1.8-4.6,3.2-7.6,4.2c-3,1-6.3,1.9-9.8,2.5
				c-3.5,0.7-7.1,1.2-11,1.7c-3.8,0.5-7.6,1-11.5,1.7c-3.6,0.7-7.1,1.6-10.6,2.7c-3.5,1.1-6.5,2.6-9.1,4.6c-2.6,1.9-4.7,4.3-6.2,7.3
				c-1.6,2.9-2.4,6.6-2.4,11.1c0,4.3,0.8,7.9,2.4,10.8c1.6,2.9,3.7,5.2,6.4,6.9c2.7,1.7,5.8,2.9,9.4,3.5c3.6,0.7,7.3,1,11.1,1
				c9.4,0,16.7-1.6,21.9-4.7c5.2-3.1,9-6.9,11.5-11.3c2.5-4.4,4-8.8,4.6-13.3c0.6-4.5,0.8-8.1,0.8-10.8V250.1z"/>
			<path class="st0" d="M492.3,94.6v240.8h-47.9V94.6H492.3z"/>
			<path class="st0" d="M541.5,134.1V94.6h47.9v39.5H541.5z M589.4,161.1v174.3h-47.9V161.1H589.4z"/>
			<path class="st0" d="M720.6,192.4c-7.6,0-14.1,1.7-19.2,5.2c-5.2,3.5-9.4,8-12.6,13.5c-3.3,5.5-5.6,11.6-6.9,18.2
				c-1.3,6.6-2,13.2-2,19.7c0,6.3,0.7,12.7,2,19.2c1.3,6.5,3.5,12.4,6.6,17.7c3,5.3,7.1,9.6,12.3,13c5.2,3.4,11.5,5.1,18.9,5.1
				c11.5,0,20.3-3.2,26.5-9.6c6.2-6.4,10.1-15,11.6-25.8h46.2c-3.2,23.2-12.1,40.8-27,52.9c-14.8,12.1-33.8,18.2-57,18.2
				c-13,0-25-2.2-35.9-6.6c-10.9-4.4-20.2-10.5-27.8-18.4c-7.6-7.9-13.6-17.3-17.9-28.2c-4.3-10.9-6.4-22.9-6.4-35.9
				c0-13.5,2-26,5.9-37.6c3.9-11.6,9.7-21.6,17.4-30c7.6-8.4,17-15,28-19.7c11-4.7,23.6-7.1,37.8-7.1c10.3,0,20.3,1.3,29.8,4
				c9.6,2.7,18.1,6.8,25.6,12.3c7.5,5.5,13.7,12.4,18.4,20.6c4.7,8.2,7.4,17.9,8.1,29.2H756C752.8,202.4,741,192.4,720.6,192.4z"/>
			<path class="st0" d="M842,210.5c4.3-11.3,10.3-21,18.2-29c7.9-8,17.3-14.2,28.3-18.5c11-4.4,23.4-6.6,37.1-6.6
				c13.7,0,26.1,2.2,37.3,6.6c11.1,4.4,20.6,10.6,28.5,18.5c7.9,8,13.9,17.7,18.2,29c4.3,11.4,6.4,24,6.4,37.9
				c0,13.9-2.1,26.5-6.4,37.8c-4.3,11.2-10.3,20.9-18.2,28.8c-7.9,8-17.4,14.1-28.5,18.4c-11.1,4.3-23.6,6.4-37.3,6.4
				c-13.7,0-26.1-2.1-37.1-6.4c-11-4.3-20.5-10.4-28.3-18.4c-7.9-8-13.9-17.6-18.2-28.8c-4.3-11.2-6.4-23.8-6.4-37.8
				C835.6,234.5,837.7,221.8,842,210.5z M885.5,268.8c1.3,6.6,3.7,12.6,6.9,17.9c3.3,5.3,7.6,9.5,13,12.6c5.4,3.2,12.1,4.7,20.2,4.7
				c8.1,0,14.9-1.6,20.4-4.7c5.5-3.1,9.9-7.4,13.2-12.6c3.3-5.3,5.6-11.2,6.9-17.9c1.4-6.6,2-13.4,2-20.4c0-7-0.7-13.8-2-20.6
				c-1.3-6.7-3.7-12.7-6.9-17.9c-3.3-5.2-7.6-9.4-13.2-12.6c-5.5-3.3-12.3-4.9-20.4-4.9c-8.1,0-14.8,1.6-20.2,4.9
				c-5.4,3.3-9.7,7.5-13,12.6c-3.3,5.2-5.6,11.1-6.9,17.9c-1.3,6.7-2,13.6-2,20.6C883.5,255.4,884.1,262.2,885.5,268.8z"/>
		</g>
	</g>
	<g>
		<path class="st0" d="M1048.9,203.5c0-3.4-0.1-7.6-0.4-12.4c-0.3-4.9-0.5-9.8-0.6-14.8c-0.1-5-0.3-9.7-0.6-14
			c-0.3-4.3-0.4-7.7-0.4-10.1h23.7c0.3,6.8,0.5,13.4,0.6,19.7c0.1,6.3,0.5,10.4,1,12.2h1.2c4.7-10,12.6-18.6,23.7-25.9
			c11.1-7.2,23.9-10.9,38.7-10.9c14.2,0,25.8,2.2,34.7,6.7c8.9,4.5,16,10.3,21.1,17.6c5.1,7.2,8.7,15.6,10.7,25.1
			c2,9.5,3,19.2,3,29.2v108.6h-23.7V227.2c0-7.4-0.7-14.5-2-21.5c-1.3-7-3.6-13.2-6.9-18.8c-3.3-5.5-7.9-9.9-13.8-13.2
			c-5.9-3.3-13.6-4.9-23.1-4.9c-8.7,0-16.9,1.5-24.7,4.5c-7.8,3-14.5,7.6-20.1,13.8c-5.7,6.2-10.1,14-13.4,23.3
			c-3.3,9.3-4.9,20.3-4.9,33v91.2h-23.7V203.5z"/>
		<path class="st0" d="M1270,243.4c0-13.9,2.4-26.8,7.1-38.5c4.7-11.7,11.3-21.8,19.7-30.4c8.4-8.6,18.6-15.2,30.4-19.9
			c11.8-4.7,24.7-7.1,38.7-7.1c13.9,0,26.8,2.4,38.5,7.1c11.7,4.7,21.8,11.4,30.4,19.9c8.6,8.6,15.2,18.7,19.9,30.4
			c4.7,11.7,7.1,24.5,7.1,38.5c0,14-2.4,26.8-7.1,38.5c-4.7,11.7-11.4,21.9-19.9,30.4c-8.6,8.6-18.7,15.2-30.4,19.9
			c-11.7,4.7-24.5,7.1-38.5,7.1c-14,0-26.8-2.4-38.7-7.1c-11.8-4.7-22-11.4-30.4-19.9c-8.4-8.6-15-18.7-19.7-30.4
			C1272.4,270.2,1270,257.3,1270,243.4z M1293.7,243.4c0,10.3,1.6,19.9,4.9,29c3.3,9.1,8.1,17,14.4,23.7c6.3,6.7,13.9,12,22.9,16
			c8.9,3.9,19,5.9,30,5.9s21.1-2,30-5.9c8.9-3.9,16.6-9.3,22.9-16c6.3-6.7,11.1-14.6,14.4-23.7c3.3-9.1,4.9-18.8,4.9-29
			c0-10.3-1.6-19.9-4.9-29c-3.3-9.1-8.1-17-14.4-23.7c-6.3-6.7-14-12-22.9-16c-9-3.9-19-5.9-30-5.9s-21.1,2-30,5.9
			c-9,3.9-16.6,9.3-22.9,16c-6.3,6.7-11.1,14.6-14.4,23.7C1295.3,223.4,1293.7,233.1,1293.7,243.4z"/>
		<path class="st0" d="M1526.6,203.5c0-3.4-0.1-7.6-0.4-12.4c-0.3-4.9-0.5-9.8-0.6-14.8c-0.1-5-0.3-9.7-0.6-14
			c-0.3-4.3-0.4-7.7-0.4-10.1h23.7c0.3,6.8,0.5,13.4,0.6,19.7c0.1,6.3,0.5,10.4,1,12.2c6.1-10.8,13.8-19.6,23.3-26.5
			c9.5-6.8,21.1-10.3,34.7-10.3c2.4,0,4.7,0.2,6.9,0.6c2.2,0.4,4.5,0.9,6.9,1.4l-2.8,23.3c-3.2-1-6.2-1.6-9.1-1.6
			c-10.3,0-19.1,1.6-26.7,4.9c-7.5,3.3-13.7,7.8-18.6,13.6c-4.9,5.8-8.5,12.6-10.9,20.3c-2.4,7.8-3.6,16.1-3.6,25.1v99.5h-23.7
			V203.5z"/>
		<path class="st0" d="M1759.2,173.5h-52.1v118.8c0,8.2,2.2,14.5,6.7,19c4.5,4.5,10.7,6.7,18.6,6.7c4.5,0,9-0.6,13.6-1.8
			c4.6-1.2,9-2.7,13.2-4.5l2,21.3c-4.5,1.6-9.6,3-15.4,4.3c-5.8,1.3-10.9,2-15.4,2c-8.4,0-15.7-1.3-21.7-3.8
			c-6.1-2.5-10.9-5.9-14.6-10.1c-3.7-4.2-6.4-9.1-8.1-14.8c-1.7-5.7-2.6-11.8-2.6-18.4V173.5h-39.5v-21.3h39.5V99.6h23.7v52.5h52.1
			V173.5z"/>
		<path class="st0" d="M1813.6,36.1h23.7v148.1h0.8c4.7-10,12.6-18.6,23.7-25.9c11.1-7.2,23.9-10.9,38.7-10.9
			c14.2,0,25.8,2.2,34.7,6.7c8.9,4.5,16,10.3,21.1,17.6c5.1,7.2,8.7,15.6,10.7,25.1c2,9.5,3,19.2,3,29.2v108.6h-23.7V227.2
			c0-7.4-0.7-14.5-2-21.5c-1.3-7-3.6-13.2-6.9-18.8c-3.3-5.5-7.9-9.9-13.8-13.2c-5.9-3.3-13.6-4.9-23.1-4.9
			c-8.7,0-16.9,1.5-24.7,4.5c-7.8,3-14.5,7.6-20.1,13.8c-5.7,6.2-10.1,14-13.4,23.3c-3.3,9.3-4.9,20.3-4.9,33v91.2h-23.7V36.1z"/>
	</g>
</g>
</svg>
